<svg width="228" height="268" viewBox="0 0 228 268" fill="none" xmlns="http://www.w3.org/2000/svg">
<path d="M131.566 154.249V229.366H96.175V154.249V131.776H91.3785V117.655H87.8837V69.5264H94.9745V57.6955H99.7729L99.7563 48.4522L113.872 20.7014L127.986 48.4509V57.6955H132.789V69.5264H139.863V117.654H136.362V131.776H131.566V154.249Z" fill="#D3A51D"/>
<path d="M131.889 126.743H131.692H123.76V117.656H131.889V126.743ZM119.16 117.656V126.743H108.833V117.656H119.16ZM121.9 46.587H106.096L113.998 31.0516L121.9 46.587ZM104.488 51.6196H123.512V57.6955H104.499L104.488 51.6196ZM99.7007 62.7281H99.9085H128.112H128.315V69.5264H99.7007V62.7281ZM92.6099 74.559H95.1008H132.915H135.389V112.622H92.6099V74.559ZM96.1047 126.743V117.656H104.233V126.743H96.3011H96.1047Z" fill="#023047"/>
<path d="M111.186 135.858H106.585V148.315H111.186V135.858Z" fill="#023047"/>
<path d="M121.41 135.858H116.81V148.315H121.41V135.858Z" fill="#023047"/>
<path d="M111.186 155.034H106.585V167.491H111.186V155.034Z" fill="#023047"/>
<path d="M121.41 155.034H116.81V167.491H121.41V155.034Z" fill="#023047"/>
<path d="M111.186 174.211H106.585V186.667H111.186V174.211Z" fill="#023047"/>
<path d="M121.41 174.211H116.81V186.667H121.41V174.211Z" fill="#023047"/>
<path d="M111.186 193.387H106.585V205.844H111.186V193.387Z" fill="#023047"/>
<path d="M121.41 193.387H116.81V205.844H121.41V193.387Z" fill="#023047"/>
<path d="M111.186 212.563H106.585V225.02H111.186V212.563Z" fill="#023047"/>
<path d="M121.41 212.563H116.81V225.02H121.41V212.563Z" fill="#023047"/>
<path d="M114 76.864C105.571 76.864 98.7123 84.3674 98.7123 93.59C98.7123 102.813 105.571 110.316 114 110.316C122.43 110.316 129.288 102.813 129.288 93.59C129.288 84.3674 122.43 76.864 114 76.864ZM114 105.283C108.107 105.283 103.312 100.038 103.312 93.59C103.312 87.142 108.107 81.8966 114 81.8966C119.894 81.8966 124.688 87.1418 124.688 93.5897C124.688 100.038 119.894 105.283 114 105.283Z" fill="#D3A51D"/>
<path d="M116.299 85.4513H111.701V94.6679L117.247 100.738L120.5 97.1806L116.299 92.584V85.4513Z" fill="#D3A51D"/>
<path d="M177.618 131.458V137.419C166.856 137.419 165.558 147.202 165.444 148.318L158.813 148.305C158.701 147.202 157.405 137.419 146.643 137.419V131.458C154.459 131.458 159.309 134.945 162.13 138.991C164.952 134.945 169.804 131.458 177.618 131.458Z" fill="#E0E0E2"/>
<path d="M36.9501 165.237H34.4019C33.2331 160.952 28.9252 157.858 23.8551 157.858C18.7779 157.858 14.4645 160.952 13.295 165.237H10.7592C7.04222 165.237 4.01764 167.935 4.01764 171.25C4.01764 174.561 7.04222 177.253 10.7592 177.253H19.8824V174.423H10.7592C8.79112 174.423 7.19013 173 7.19013 171.251C7.19013 169.496 8.79112 168.068 10.7592 168.068H16.0485L16.2018 166.805C16.6247 163.317 19.915 160.688 23.8551 160.688C27.7874 160.688 31.0721 163.317 31.4951 166.805L31.6484 168.068H36.9501C38.9182 168.068 40.5192 169.496 40.5192 171.251C40.5192 173 38.9182 174.423 36.9501 174.423H27.6921V177.253H36.9501C40.6671 177.253 43.6917 174.561 43.6917 171.25C43.6917 167.935 40.6671 165.237 36.9501 165.237Z" fill="#E0E0E2"/>
<path d="M24.6079 174.559H22.5991V177.253H24.6079V174.559Z" fill="#E0E0E2"/>
<path d="M89.4005 9.43312C45.4856 -27.2032 -14.5553 51.1875 14.8228 102.3C32.2025 132.537 54.0936 183.18 89.4005 230.322V144.659C89.4005 114.422 39.1915 99.6057 39.1915 64.3829C39.1915 53.0735 62.0418 15.0859 89.4006 55.7673C89.4006 55.7673 105.996 27.5276 89.4005 9.43312Z" fill="#E0E0E2"/>
<path d="M55.7444 59.2638C63.3582 59.2638 68.1061 62.6361 70.8846 66.5682C73.6615 62.6357 78.4094 59.2638 86.0238 59.2638V65.2248C75.2917 65.2248 74.2402 75.3715 74.2013 75.8036H67.5686C67.4597 74.7325 66.1955 65.2248 55.7444 65.2248V59.2638Z" fill="#E0E0E2"/>
<path d="M187.318 57.7446H174.906V62.4965H187.318C192.6 62.4965 196.896 58.6737 196.896 53.9765C196.896 49.2698 192.6 45.4414 187.318 45.4414H184.319C182.553 39.6801 176.666 35.5583 169.761 35.5583C162.848 35.5583 156.954 39.6801 155.186 45.4414H152.203C146.922 45.4414 142.626 49.2698 142.626 53.9765C142.626 58.674 146.922 62.4965 152.203 62.4965H164.435V57.7446H152.203C149.863 57.7446 147.958 56.0544 147.958 53.9765C147.958 51.8906 149.863 50.1933 152.203 50.1933H159.779C159.898 49.9555 159.711 40.3102 169.761 40.3102C179.793 40.3102 179.605 49.9555 179.724 50.1933H187.318C189.659 50.1933 191.563 51.8906 191.563 53.9765C191.563 56.0544 189.659 57.7446 187.318 57.7446Z" fill="#E0E0E2"/>
<path d="M171.381 57.7171H168.141V62.4965H171.381V57.7171Z" fill="#E0E0E2"/>
</svg>
